<svg width="129" height="61" viewBox="0 0 129 61" fill="none" xmlns="http://www.w3.org/2000/svg">
<path d="M18.8148 36.5C15.6482 36.5 12.9315 35.9833 10.6648 34.95C8.43151 33.9167 6.68151 32.4 5.41484 30.4C4.18151 28.4 3.49818 25.9167 3.36484 22.95C3.33151 21.5833 3.31484 20.1167 3.31484 18.55C3.31484 16.9833 3.33151 15.4833 3.36484 14.05C3.49818 11.15 4.19818 8.7 5.46484 6.7C6.73151 4.66667 8.49818 3.13333 10.7648 2.1C13.0315 1.03333 15.7148 0.499998 18.8148 0.499998C21.0148 0.499998 23.0482 0.783332 24.9148 1.35C26.7815 1.88333 28.4148 2.68333 29.8148 3.75C31.2148 4.78333 32.2982 6.05 33.0648 7.55C33.8648 9.01667 34.2815 10.6833 34.3148 12.55C34.3482 12.85 34.2482 13.1 34.0148 13.3C33.8148 13.5 33.5648 13.6 33.2648 13.6H26.5148C26.0815 13.6 25.7482 13.5167 25.5148 13.35C25.2815 13.15 25.0815 12.8 24.9148 12.3C24.4482 10.5333 23.6815 9.33333 22.6148 8.7C21.5815 8.03333 20.2982 7.7 18.7648 7.7C16.9315 7.7 15.4815 8.21666 14.4148 9.25C13.3482 10.25 12.7648 11.9333 12.6648 14.3C12.5648 17.0333 12.5648 19.8333 12.6648 22.7C12.7648 25.0667 13.3482 26.7667 14.4148 27.8C15.4815 28.8 16.9315 29.3 18.7648 29.3C20.2982 29.3 21.5982 28.9667 22.6648 28.3C23.7315 27.6333 24.4815 26.4333 24.9148 24.7C25.0482 24.2 25.2315 23.8667 25.4648 23.7C25.7315 23.5 26.0815 23.4 26.5148 23.4H33.2648C33.5648 23.4 33.8148 23.5 34.0148 23.7C34.2482 23.9 34.3482 24.15 34.3148 24.45C34.2815 26.3167 33.8648 28 33.0648 29.5C32.2982 30.9667 31.2148 32.2333 29.8148 33.3C28.4148 34.3333 26.7815 35.1333 24.9148 35.7C23.0482 36.2333 21.0148 36.5 18.8148 36.5ZM40.8223 36C40.4556 36 40.1556 35.8833 39.9223 35.65C39.6889 35.4167 39.5723 35.1167 39.5723 34.75V2.25C39.5723 1.88333 39.6889 1.58333 39.9223 1.35C40.1556 1.11666 40.4556 0.999998 40.8223 0.999998H54.4223C58.7223 0.999998 62.1056 2 64.5723 4C67.0723 5.96666 68.3223 8.76667 68.3223 12.4C68.3223 14.7667 67.7389 16.7667 66.5723 18.4C65.4389 20.0333 63.9389 21.2667 62.0723 22.1L68.9723 34.4C69.0723 34.6 69.1223 34.7833 69.1223 34.95C69.1223 35.2167 69.0056 35.4667 68.7723 35.7C68.5723 35.9 68.3223 36 68.0223 36H61.4223C60.7889 36 60.3223 35.85 60.0223 35.55C59.7223 35.2167 59.5056 34.9167 59.3723 34.65L53.6723 23.65H48.5223V34.75C48.5223 35.1167 48.4056 35.4167 48.1723 35.65C47.9389 35.8833 47.6389 36 47.2723 36H40.8223ZM48.5223 16.6H54.3223C55.8889 16.6 57.0556 16.2167 57.8223 15.45C58.6223 14.6833 59.0223 13.6333 59.0223 12.3C59.0223 11 58.6389 9.95 57.8723 9.15C57.1389 8.35 55.9556 7.95 54.3223 7.95H48.5223V16.6ZM75.3926 36C75.0592 36 74.7592 35.8833 74.4926 35.65C74.2592 35.4167 74.1426 35.1167 74.1426 34.75V2.25C74.1426 1.88333 74.2592 1.58333 74.4926 1.35C74.7592 1.11666 75.0592 0.999998 75.3926 0.999998H80.7926C81.3259 0.999998 81.7259 1.15 81.9926 1.45C82.2926 1.71666 82.4759 1.93333 82.5426 2.1L91.3426 17.9L100.143 2.1C100.243 1.93333 100.409 1.71666 100.643 1.45C100.909 1.15 101.326 0.999998 101.893 0.999998H107.243C107.609 0.999998 107.909 1.11666 108.143 1.35C108.409 1.58333 108.543 1.88333 108.543 2.25V34.75C108.543 35.1167 108.409 35.4167 108.143 35.65C107.909 35.8833 107.609 36 107.243 36H101.293C100.926 36 100.609 35.8833 100.343 35.65C100.109 35.4167 99.9926 35.1167 99.9926 34.75V16L94.3426 26.45C94.2092 26.75 94.0092 27.0167 93.7426 27.25C93.4759 27.4833 93.1092 27.6 92.6426 27.6H90.0426C89.5759 27.6 89.2092 27.4833 88.9426 27.25C88.6759 27.0167 88.4592 26.75 88.2926 26.45L82.6426 16V34.75C82.6426 35.1167 82.5259 35.4167 82.2926 35.65C82.0592 35.8833 81.7592 36 81.3926 36H75.3926Z" fill="#387CFF"/>
<path d="M5.28938 57C5.14271 57 5.02271 56.9533 4.92937 56.86C4.83604 56.7667 4.78938 56.6467 4.78938 56.5V47.1C4.78938 46.9533 4.83604 46.8333 4.92937 46.74C5.02271 46.6467 5.14271 46.6 5.28938 46.6H7.46938C7.61604 46.6 7.73604 46.6467 7.82938 46.74C7.92271 46.8333 7.96938 46.9533 7.96938 47.1V47.78C8.23604 47.42 8.60938 47.1067 9.08938 46.84C9.56938 46.56 10.136 46.4133 10.7894 46.4C12.3227 46.3733 13.376 46.9533 13.9494 48.14C14.256 47.6333 14.696 47.22 15.2694 46.9C15.8427 46.5667 16.4694 46.4 17.1494 46.4C17.8427 46.4 18.4627 46.56 19.0094 46.88C19.5694 47.1867 20.016 47.6667 20.3494 48.32C20.6827 48.96 20.8494 49.7933 20.8494 50.82V56.5C20.8494 56.6467 20.796 56.7667 20.6894 56.86C20.596 56.9533 20.4827 57 20.3494 57H18.0294C17.8827 57 17.756 56.9533 17.6494 56.86C17.556 56.7667 17.5094 56.6467 17.5094 56.5V50.96C17.5094 50.4933 17.4427 50.1267 17.3094 49.86C17.176 49.58 16.996 49.38 16.7694 49.26C16.5427 49.14 16.2827 49.08 15.9894 49.08C15.7494 49.08 15.5094 49.14 15.2694 49.26C15.0427 49.38 14.856 49.58 14.7094 49.86C14.576 50.1267 14.5094 50.4933 14.5094 50.96V56.5C14.5094 56.6467 14.4627 56.7667 14.3694 56.86C14.276 56.9533 14.156 57 14.0094 57H11.6894C11.5427 57 11.4227 56.9533 11.3294 56.86C11.236 56.7667 11.1894 56.6467 11.1894 56.5V50.96C11.1894 50.4933 11.116 50.1267 10.9694 49.86C10.8227 49.58 10.636 49.38 10.4094 49.26C10.1827 49.14 9.92938 49.08 9.64938 49.08C9.40938 49.08 9.16938 49.14 8.92938 49.26C8.70271 49.38 8.51604 49.58 8.36938 49.86C8.23604 50.1267 8.16938 50.4867 8.16938 50.94V56.5C8.16938 56.6467 8.11604 56.7667 8.00938 56.86C7.91604 56.9533 7.79604 57 7.64938 57H5.28938ZM26.2102 57.2C25.4902 57.2 24.8435 57.0667 24.2702 56.8C23.7102 56.52 23.2635 56.1467 22.9302 55.68C22.5968 55.2133 22.4302 54.6867 22.4302 54.1C22.4302 53.1533 22.8168 52.4067 23.5902 51.86C24.3635 51.3 25.3902 50.92 26.6702 50.72L29.1702 50.34V50.06C29.1702 49.58 29.0702 49.2133 28.8702 48.96C28.6702 48.7067 28.3035 48.58 27.7702 48.58C27.3968 48.58 27.0902 48.6533 26.8502 48.8C26.6235 48.9467 26.4435 49.1467 26.3102 49.4C26.1902 49.5733 26.0235 49.66 25.8102 49.66H23.5702C23.4235 49.66 23.3102 49.62 23.2302 49.54C23.1502 49.4467 23.1168 49.34 23.1302 49.22C23.1302 48.98 23.2168 48.7067 23.3902 48.4C23.5768 48.08 23.8568 47.7667 24.2302 47.46C24.6035 47.1533 25.0835 46.9 25.6702 46.7C26.2568 46.5 26.9635 46.4 27.7902 46.4C28.6568 46.4 29.3968 46.5 30.0102 46.7C30.6235 46.9 31.1168 47.18 31.4902 47.54C31.8768 47.9 32.1635 48.3267 32.3502 48.82C32.5368 49.3 32.6302 49.8333 32.6302 50.42V56.5C32.6302 56.6467 32.5768 56.7667 32.4702 56.86C32.3768 56.9533 32.2635 57 32.1302 57H29.8102C29.6635 57 29.5435 56.9533 29.4502 56.86C29.3568 56.7667 29.3102 56.6467 29.3102 56.5V55.8C29.1368 56.0533 28.9035 56.2867 28.6102 56.5C28.3168 56.7133 27.9702 56.88 27.5702 57C27.1835 57.1333 26.7302 57.2 26.2102 57.2ZM27.1502 54.92C27.5368 54.92 27.8835 54.84 28.1902 54.68C28.5102 54.5067 28.7568 54.2467 28.9302 53.9C29.1168 53.54 29.2102 53.0933 29.2102 52.56V52.28L27.5102 52.58C26.8835 52.6867 26.4235 52.8533 26.1302 53.08C25.8502 53.2933 25.7102 53.5467 25.7102 53.84C25.7102 54.0667 25.7768 54.26 25.9102 54.42C26.0435 54.58 26.2168 54.7067 26.4302 54.8C26.6435 54.88 26.8835 54.92 27.1502 54.92ZM35.387 57C35.2404 57 35.1204 56.9533 35.027 56.86C34.9337 56.7667 34.887 56.6467 34.887 56.5V47.1C34.887 46.9667 34.9337 46.8533 35.027 46.76C35.1204 46.6533 35.2404 46.6 35.387 46.6H37.687C37.8337 46.6 37.9537 46.6533 38.047 46.76C38.1404 46.8533 38.187 46.9667 38.187 47.1V47.9C38.547 47.4867 38.9737 47.1667 39.467 46.94C39.9737 46.7133 40.5404 46.6 41.167 46.6H42.047C42.1804 46.6 42.2937 46.6467 42.387 46.74C42.4937 46.8333 42.547 46.9533 42.547 47.1V49.16C42.547 49.2933 42.4937 49.4133 42.387 49.52C42.2937 49.6133 42.1804 49.66 42.047 49.66H40.107C39.5604 49.66 39.1337 49.8133 38.827 50.12C38.5337 50.4133 38.387 50.8333 38.387 51.38V56.5C38.387 56.6467 38.3337 56.7667 38.227 56.86C38.1337 56.9533 38.0137 57 37.867 57H35.387ZM44.4691 57C44.3224 57 44.2024 56.9533 44.1091 56.86C44.0157 56.7667 43.9691 56.6467 43.9691 56.5V43.3C43.9691 43.1533 44.0157 43.0333 44.1091 42.94C44.2024 42.8467 44.3224 42.8 44.4691 42.8H46.7891C46.9224 42.8 47.0357 42.8467 47.1291 42.94C47.2357 43.0333 47.2891 43.1533 47.2891 43.3V50L50.0691 46.94C50.1491 46.8467 50.2357 46.7667 50.3291 46.7C50.4224 46.6333 50.5557 46.6 50.7291 46.6H53.4091C53.5291 46.6 53.6291 46.6467 53.7091 46.74C53.8024 46.82 53.8491 46.92 53.8491 47.04C53.8491 47.0933 53.8357 47.1533 53.8091 47.22C53.7824 47.2867 53.7424 47.34 53.6891 47.38L50.0891 51.26L54.1891 56.24C54.2957 56.3467 54.3491 56.4533 54.3491 56.56C54.3491 56.68 54.3024 56.7867 54.2091 56.88C54.1291 56.96 54.0224 57 53.8891 57H51.1491C50.9491 57 50.8024 56.9667 50.7091 56.9C50.6157 56.82 50.5291 56.74 50.4491 56.66L47.2891 52.86V56.5C47.2891 56.6467 47.2357 56.7667 47.1291 56.86C47.0357 56.9533 46.9224 57 46.7891 57H44.4691ZM59.98 57.2C58.4067 57.2 57.1533 56.7733 56.22 55.92C55.2867 55.0667 54.8 53.8 54.76 52.12C54.76 52.0267 54.76 51.9067 54.76 51.76C54.76 51.6133 54.76 51.5 54.76 51.42C54.8 50.3667 55.0333 49.4667 55.46 48.72C55.9 47.96 56.5 47.3867 57.26 47C58.0333 46.6 58.9333 46.4 59.96 46.4C61.1333 46.4 62.1 46.6333 62.86 47.1C63.6333 47.5667 64.2133 48.2 64.6 49C64.9867 49.8 65.18 50.7133 65.18 51.74V52.22C65.18 52.3667 65.1267 52.4867 65.02 52.58C64.9267 52.6733 64.8133 52.72 64.68 52.72H58.28C58.28 52.7333 58.28 52.7533 58.28 52.78C58.28 52.8067 58.28 52.8333 58.28 52.86C58.2933 53.2467 58.36 53.6 58.48 53.92C58.6 54.24 58.7867 54.4933 59.04 54.68C59.2933 54.8667 59.6 54.96 59.96 54.96C60.2267 54.96 60.4467 54.92 60.62 54.84C60.8067 54.7467 60.96 54.6467 61.08 54.54C61.2 54.42 61.2933 54.32 61.36 54.24C61.48 54.1067 61.5733 54.0267 61.64 54C61.72 53.96 61.84 53.94 62 53.94H64.48C64.6133 53.94 64.72 53.98 64.8 54.06C64.8933 54.1267 64.9333 54.2267 64.92 54.36C64.9067 54.5867 64.7933 54.86 64.58 55.18C64.3667 55.5 64.0533 55.82 63.64 56.14C63.24 56.4467 62.7333 56.7 62.12 56.9C61.5067 57.1 60.7933 57.2 59.98 57.2ZM58.28 50.74H61.66V50.7C61.66 50.2733 61.5933 49.9 61.46 49.58C61.34 49.26 61.1467 49.0133 60.88 48.84C60.6267 48.6667 60.32 48.58 59.96 48.58C59.6 48.58 59.2933 48.6667 59.04 48.84C58.8 49.0133 58.6133 49.26 58.48 49.58C58.3467 49.9 58.28 50.2733 58.28 50.7V50.74ZM72.3555 57C71.5021 57 70.7621 56.8667 70.1355 56.6C69.5221 56.32 69.0488 55.8933 68.7155 55.32C68.3821 54.7333 68.2155 53.98 68.2155 53.06V49.22H66.6555C66.5088 49.22 66.3821 49.1733 66.2755 49.08C66.1821 48.9867 66.1355 48.8667 66.1355 48.72V47.1C66.1355 46.9533 66.1821 46.8333 66.2755 46.74C66.3821 46.6467 66.5088 46.6 66.6555 46.6H68.2155V43.3C68.2155 43.1533 68.2621 43.0333 68.3555 42.94C68.4621 42.8467 68.5821 42.8 68.7155 42.8H71.0355C71.1821 42.8 71.3021 42.8467 71.3955 42.94C71.4888 43.0333 71.5355 43.1533 71.5355 43.3V46.6H74.0355C74.1821 46.6 74.3021 46.6467 74.3955 46.74C74.4888 46.8333 74.5355 46.9533 74.5355 47.1V48.72C74.5355 48.8667 74.4888 48.9867 74.3955 49.08C74.3021 49.1733 74.1821 49.22 74.0355 49.22H71.5355V52.78C71.5355 53.2333 71.6221 53.5933 71.7955 53.86C71.9688 54.1267 72.2621 54.26 72.6755 54.26H74.2155C74.3621 54.26 74.4821 54.3067 74.5755 54.4C74.6688 54.4933 74.7155 54.6133 74.7155 54.76V56.5C74.7155 56.6467 74.6688 56.7667 74.5755 56.86C74.4821 56.9533 74.3621 57 74.2155 57H72.3555ZM76.8714 60.8C76.7247 60.8 76.6047 60.7533 76.5114 60.66C76.4181 60.5667 76.3714 60.4467 76.3714 60.3V47.1C76.3714 46.9533 76.4181 46.8333 76.5114 46.74C76.6047 46.6467 76.7247 46.6 76.8714 46.6H79.1314C79.2647 46.6 79.3781 46.6467 79.4714 46.74C79.5781 46.8333 79.6314 46.9533 79.6314 47.1V47.84C79.9381 47.4267 80.3447 47.0867 80.8514 46.82C81.3581 46.54 81.9847 46.4 82.7314 46.4C83.3981 46.4 83.9847 46.5067 84.4914 46.72C84.9981 46.92 85.4314 47.22 85.7914 47.62C86.1514 48.02 86.4314 48.5067 86.6314 49.08C86.8447 49.6533 86.9647 50.3133 86.9914 51.06C87.0047 51.3267 87.0114 51.5733 87.0114 51.8C87.0114 52.0267 87.0047 52.2733 86.9914 52.54C86.9647 53.26 86.8514 53.9067 86.6514 54.48C86.4514 55.0533 86.1714 55.54 85.8114 55.94C85.4514 56.34 85.0114 56.6533 84.4914 56.88C83.9847 57.0933 83.3981 57.2 82.7314 57.2C82.0781 57.2 81.5047 57.0867 81.0114 56.86C80.5314 56.62 80.1314 56.2867 79.8114 55.86V60.3C79.8114 60.4467 79.7647 60.5667 79.6714 60.66C79.5781 60.7533 79.4581 60.8 79.3114 60.8H76.8714ZM81.6514 54.52C82.1047 54.52 82.4581 54.4267 82.7114 54.24C82.9647 54.0533 83.1447 53.8 83.2514 53.48C83.3714 53.16 83.4447 52.8067 83.4714 52.42C83.4981 52.0067 83.4981 51.5933 83.4714 51.18C83.4447 50.7933 83.3714 50.44 83.2514 50.12C83.1447 49.8 82.9647 49.5467 82.7114 49.36C82.4581 49.1733 82.1047 49.08 81.6514 49.08C81.2114 49.08 80.8581 49.18 80.5914 49.38C80.3247 49.5667 80.1314 49.8133 80.0114 50.12C79.8914 50.4267 79.8247 50.76 79.8114 51.12C79.7981 51.3733 79.7914 51.62 79.7914 51.86C79.7914 52.1 79.7981 52.3533 79.8114 52.62C79.8247 52.9533 79.8981 53.2667 80.0314 53.56C80.1647 53.84 80.3647 54.0733 80.6314 54.26C80.8981 54.4333 81.2381 54.52 81.6514 54.52ZM89.4886 57C89.3419 57 89.2219 56.9533 89.1286 56.86C89.0353 56.7667 88.9886 56.6467 88.9886 56.5V43.3C88.9886 43.1533 89.0353 43.0333 89.1286 42.94C89.2219 42.8467 89.3419 42.8 89.4886 42.8H91.8486C91.9953 42.8 92.1153 42.8467 92.2086 42.94C92.3019 43.0333 92.3486 43.1533 92.3486 43.3V56.5C92.3486 56.6467 92.3019 56.7667 92.2086 56.86C92.1153 56.9533 91.9953 57 91.8486 57H89.4886ZM97.8313 57.2C97.1113 57.2 96.4646 57.0667 95.8913 56.8C95.3313 56.52 94.8846 56.1467 94.5513 55.68C94.2179 55.2133 94.0513 54.6867 94.0513 54.1C94.0513 53.1533 94.4379 52.4067 95.2113 51.86C95.9846 51.3 97.0113 50.92 98.2913 50.72L100.791 50.34V50.06C100.791 49.58 100.691 49.2133 100.491 48.96C100.291 48.7067 99.9246 48.58 99.3913 48.58C99.0179 48.58 98.7113 48.6533 98.4713 48.8C98.2446 48.9467 98.0646 49.1467 97.9313 49.4C97.8113 49.5733 97.6446 49.66 97.4313 49.66H95.1913C95.0446 49.66 94.9313 49.62 94.8512 49.54C94.7713 49.4467 94.7379 49.34 94.7513 49.22C94.7513 48.98 94.8379 48.7067 95.0113 48.4C95.1979 48.08 95.4779 47.7667 95.8513 47.46C96.2246 47.1533 96.7046 46.9 97.2913 46.7C97.8779 46.5 98.5846 46.4 99.4112 46.4C100.278 46.4 101.018 46.5 101.631 46.7C102.245 46.9 102.738 47.18 103.111 47.54C103.498 47.9 103.785 48.3267 103.971 48.82C104.158 49.3 104.251 49.8333 104.251 50.42V56.5C104.251 56.6467 104.198 56.7667 104.091 56.86C103.998 56.9533 103.885 57 103.751 57H101.431C101.285 57 101.165 56.9533 101.071 56.86C100.978 56.7667 100.931 56.6467 100.931 56.5V55.8C100.758 56.0533 100.525 56.2867 100.231 56.5C99.9379 56.7133 99.5913 56.88 99.1913 57C98.8046 57.1333 98.3513 57.2 97.8313 57.2ZM98.7713 54.92C99.1579 54.92 99.5046 54.84 99.8113 54.68C100.131 54.5067 100.378 54.2467 100.551 53.9C100.738 53.54 100.831 53.0933 100.831 52.56V52.28L99.1313 52.58C98.5046 52.6867 98.0446 52.8533 97.7513 53.08C97.4713 53.2933 97.3313 53.5467 97.3313 53.84C97.3313 54.0667 97.3979 54.26 97.5313 54.42C97.6646 54.58 97.8379 54.7067 98.0513 54.8C98.2646 54.88 98.5046 54.92 98.7713 54.92ZM111.288 57.2C110.301 57.2 109.428 57.02 108.668 56.66C107.908 56.3 107.301 55.78 106.848 55.1C106.408 54.4067 106.168 53.58 106.128 52.62C106.115 52.4067 106.108 52.14 106.108 51.82C106.108 51.4867 106.115 51.2133 106.128 51C106.168 50.0267 106.408 49.2 106.848 48.52C107.288 47.8267 107.888 47.3 108.648 46.94C109.421 46.58 110.301 46.4 111.288 46.4C112.208 46.4 112.995 46.5333 113.648 46.8C114.301 47.0533 114.835 47.3733 115.248 47.76C115.661 48.1467 115.968 48.5467 116.168 48.96C116.381 49.36 116.495 49.7133 116.508 50.02C116.521 50.1533 116.475 50.2733 116.368 50.38C116.261 50.4733 116.141 50.52 116.008 50.52H113.468C113.321 50.52 113.208 50.4867 113.128 50.42C113.048 50.3533 112.975 50.2533 112.908 50.12C112.748 49.7067 112.541 49.4133 112.288 49.24C112.048 49.0667 111.735 48.98 111.348 48.98C110.815 48.98 110.401 49.1533 110.108 49.5C109.828 49.8467 109.675 50.38 109.648 51.1C109.635 51.6333 109.635 52.1067 109.648 52.52C109.675 53.2533 109.828 53.7867 110.108 54.12C110.401 54.4533 110.815 54.62 111.348 54.62C111.761 54.62 112.088 54.5333 112.328 54.36C112.568 54.1867 112.761 53.8933 112.908 53.48C112.975 53.3467 113.048 53.2467 113.128 53.18C113.208 53.1133 113.321 53.08 113.468 53.08H116.008C116.141 53.08 116.261 53.1333 116.368 53.24C116.475 53.3333 116.521 53.4467 116.508 53.58C116.495 53.8067 116.428 54.0733 116.308 54.38C116.188 54.6733 116.001 54.9867 115.748 55.32C115.495 55.6533 115.161 55.9667 114.748 56.26C114.348 56.54 113.861 56.7667 113.288 56.94C112.715 57.1133 112.048 57.2 111.288 57.2ZM123.105 57.2C121.532 57.2 120.278 56.7733 119.345 55.92C118.412 55.0667 117.925 53.8 117.885 52.12C117.885 52.0267 117.885 51.9067 117.885 51.76C117.885 51.6133 117.885 51.5 117.885 51.42C117.925 50.3667 118.158 49.4667 118.585 48.72C119.025 47.96 119.625 47.3867 120.385 47C121.158 46.6 122.058 46.4 123.085 46.4C124.258 46.4 125.225 46.6333 125.985 47.1C126.758 47.5667 127.338 48.2 127.725 49C128.112 49.8 128.305 50.7133 128.305 51.74V52.22C128.305 52.3667 128.252 52.4867 128.145 52.58C128.052 52.6733 127.938 52.72 127.805 52.72H121.405C121.405 52.7333 121.405 52.7533 121.405 52.78C121.405 52.8067 121.405 52.8333 121.405 52.86C121.418 53.2467 121.485 53.6 121.605 53.92C121.725 54.24 121.912 54.4933 122.165 54.68C122.418 54.8667 122.725 54.96 123.085 54.96C123.352 54.96 123.572 54.92 123.745 54.84C123.932 54.7467 124.085 54.6467 124.205 54.54C124.325 54.42 124.418 54.32 124.485 54.24C124.605 54.1067 124.698 54.0267 124.765 54C124.845 53.96 124.965 53.94 125.125 53.94H127.605C127.738 53.94 127.845 53.98 127.925 54.06C128.018 54.1267 128.058 54.2267 128.045 54.36C128.032 54.5867 127.918 54.86 127.705 55.18C127.492 55.5 127.178 55.82 126.765 56.14C126.365 56.4467 125.858 56.7 125.245 56.9C124.632 57.1 123.918 57.2 123.105 57.2ZM121.405 50.74H124.785V50.7C124.785 50.2733 124.718 49.9 124.585 49.58C124.465 49.26 124.272 49.0133 124.005 48.84C123.752 48.6667 123.445 48.58 123.085 48.58C122.725 48.58 122.418 48.6667 122.165 48.84C121.925 49.0133 121.738 49.26 121.605 49.58C121.472 49.9 121.405 50.2733 121.405 50.7V50.74Z" fill="black"/>
</svg>
